<svg width="28" height="29" viewBox="0 0 28 29" fill="none" xmlns="http://www.w3.org/2000/svg">
<path d="M20.8705 27.163C21.0102 27.2404 21.1574 27.3031 21.3099 27.3503C21.4497 27.3846 21.5858 27.4325 21.7163 27.4935L21.6394 27.5375H21.1781C21.0281 27.5482 20.8776 27.5482 20.7277 27.5375L20.3762 27.4494L20.4421 27.2401L20.541 27.0309H20.3323H1.09845V0H0V28.0332H27.9555V26.9317H20.7167L20.8705 27.163Z" fill="white"/>
<path d="M20.6951 24.8169C20.6951 24.938 20.6951 25.2795 20.6182 25.3015C20.5413 25.3235 20.739 25.654 20.739 25.654V25.8523H27.9998V24.7508H20.7171L20.6951 24.8169Z" fill="white"/>
<path d="M2.3517 5.5077C2.41394 5.42704 2.48825 5.35644 2.572 5.29842C2.62708 5.29842 2.69317 5.13319 2.78129 5.07812C2.84271 5.04459 2.88973 4.98973 2.91347 4.92391C2.84828 4.90845 2.78038 4.90845 2.7152 4.92391C2.66784 4.93236 2.61936 4.93236 2.572 4.92391C2.5422 4.88827 2.51974 4.84709 2.50591 4.80274H2.34069L2.2746 4.73665C2.2815 4.70193 2.29593 4.66915 2.31686 4.6406C2.33779 4.61206 2.36472 4.58845 2.39576 4.57143C2.50591 4.50534 2.39576 4.41722 2.32967 4.42823C2.26358 4.43925 2.12039 4.52737 2.17546 4.48331C2.17546 4.48331 2.23054 4.43925 2.17546 4.48331V5.6509L2.19749 5.61785C2.25684 5.59376 2.30967 5.55603 2.3517 5.5077Z" fill="white"/>
<path d="M2.40584 3.54684C2.46786 3.53877 2.53067 3.53877 2.5927 3.54684L2.7356 3.49176C2.7356 3.49176 2.7356 3.49176 2.94444 3.49176V3.30451L3.1313 3.08421C3.18626 3.08421 3.04337 2.96304 3.04337 2.96304L2.80155 3.05116H2.55972L2.42782 2.98507C2.42184 2.93753 2.42184 2.88942 2.42782 2.84188L2.57072 2.7097C2.57424 2.66571 2.57424 2.6215 2.57072 2.57752L2.65865 2.44534H2.76857V2.3462C2.82353 2.23605 2.88948 2.29112 2.88948 2.29112L3.01039 2.41229V2.50041H3.10932V2.11488V1.82849H3.01039C3.01039 1.82849 3.01039 1.70733 3.01039 1.6853L3.07634 1.61921V0H2.19699V3.84424V3.78917C2.29592 3.71206 2.35088 3.56887 2.40584 3.54684Z" fill="white"/>
<path d="M19.2559 25.8522L19.168 25.5658C19.168 25.5658 19.2559 25.3235 19.168 25.2244C19.0801 25.1252 19.168 24.8499 19.168 24.8499H3.21855V5.06689L3.15264 5.12197C3.04638 5.1687 2.93607 5.20557 2.82311 5.23212C2.70228 5.23212 2.6144 5.45242 2.49357 5.55156C2.41739 5.63831 2.31159 5.69332 2.19699 5.70577V25.8522H19.2559Z" fill="white"/>
<path d="M18.8704 23.6712C18.8265 23.5837 18.7933 23.4912 18.7715 23.3958C18.7665 23.2512 18.7967 23.1075 18.8594 22.9772C18.8873 22.8614 18.8873 22.7406 18.8594 22.6247H5.39241V4.81345C5.39241 4.81345 5.01894 4.63721 4.95303 4.59315C4.84037 4.52258 4.72291 4.46 4.60153 4.40589C4.52464 4.40589 4.4807 4.40589 4.39282 4.40589V23.6712H18.8704Z" fill="white"/>
<path d="M4.44774 0.969321C4.39282 0.980336 4.51365 0.892216 4.60153 0.848156C4.6894 0.804096 4.73334 0.914246 4.73334 0.914246L4.90909 0.826126L4.97499 0.892216H5.06287C5.08669 0.904626 5.10773 0.921769 5.12473 0.9426C5.14173 0.963431 5.15431 0.987514 5.16173 1.01338C5.16173 1.01338 5.16173 1.01338 5.16173 1.07947C5.16173 1.14556 5.16173 1.13455 5.16173 1.15658L5.28256 1.2447C5.30423 1.24985 5.3268 1.24985 5.34846 1.2447V0H4.39282V1.1015C4.39282 1.1015 4.51365 0.958306 4.44774 0.969321Z" fill="white"/>
<path d="M27.9561 22.6251H21.651C21.7059 22.7022 21.8268 22.7463 21.8487 22.8674C21.8695 22.917 21.8754 22.9715 21.8656 23.0244C21.8559 23.0772 21.8309 23.126 21.7938 23.1648C21.6186 23.2829 21.42 23.3618 21.2116 23.3961C21.1128 23.3961 21.0798 23.5614 21.0469 23.6495H27.9232L27.9561 22.6251Z" fill="white"/>
<path d="M6.75599 1.91661C6.75599 1.91661 6.85485 1.91661 6.87682 1.91661C6.87682 1.91661 6.87682 1.9827 6.87682 1.99372C6.87682 2.00473 6.94272 1.99372 6.97568 1.99372V1.92763V1.86154C6.97385 1.82484 6.97385 1.78808 6.97568 1.75139C6.97092 1.72591 6.97092 1.69976 6.97568 1.67428C6.97568 1.67428 7.09651 1.77342 7.1734 1.67428H7.25029H7.33817V0H6.23972V1.7624C6.26971 1.79648 6.30736 1.82291 6.34956 1.83951L6.75599 1.91661Z" fill="white"/>
<path d="M27.9555 20.4438H23.5617L23.3969 20.554C23.3643 20.6767 23.3643 20.8058 23.3969 20.9285C23.3969 21.0276 23.3969 21.2259 23.3969 21.2259C23.3884 21.3194 23.37 21.4117 23.342 21.5013H27.9665L27.9555 20.4438Z" fill="white"/>
<path d="M7.35952 2.20279C7.41576 2.20288 7.47028 2.18341 7.51373 2.14771V1.93843C7.49385 1.96645 7.46736 1.98915 7.43663 2.00452H7.34851C7.34851 2.00452 7.28242 2.12568 7.35952 2.20279Z" fill="white"/>
<path d="M18.751 21.5016C18.7414 21.4358 18.7414 21.369 18.751 21.3033C18.7378 21.1397 18.7565 20.9751 18.8059 20.8186C18.8228 20.6907 18.8228 20.5611 18.8059 20.4331H7.55784V10.4315C7.52686 10.3796 7.49 10.3316 7.44799 10.2883L7.32716 10.2112C7.25294 10.1664 7.18306 10.1148 7.11846 10.057L6.93172 9.83666C6.91902 9.76009 6.91902 9.68193 6.93172 9.60535C6.87996 9.55012 6.83223 9.49122 6.78892 9.42911C6.78892 9.42911 6.5912 9.24185 6.5912 9.18678C6.59487 9.12074 6.59487 9.05455 6.5912 8.98851C6.59988 8.89324 6.59988 8.79738 6.5912 8.70212C6.58232 8.62159 6.58232 8.54032 6.5912 8.45979C6.61516 8.25185 6.66688 8.04808 6.74499 7.85396C6.81732 7.82627 6.87891 7.77609 6.92074 7.71077L7.00861 7.57859C7.00179 7.4838 6.97952 7.39078 6.94271 7.30321C6.85997 7.18599 6.76815 7.0755 6.6681 6.97276C6.5912 6.89565 6.5912 6.60926 6.51431 6.53216V21.4906H18.751V21.5016Z" fill="white"/>
<path d="M8.70001 11.6869L9.10643 12.4139V12.6672L8.67804 12.2707V19.3203H18.6739C18.6739 19.1441 18.3993 19.078 18.2565 19.0009C18.1137 18.9238 17.7952 18.8687 17.6853 18.7475C17.5309 18.6111 17.3944 18.4557 17.2789 18.2849H9.73255V12.3809L9.46892 12.2597L9.33711 12.1826V12.0724V11.9403C9.27308 11.8872 9.21423 11.8282 9.16136 11.764L8.94167 11.5437C8.88666 11.4962 8.83525 11.4447 8.78788 11.3895C8.78788 11.3895 8.78788 11.2683 8.72198 11.2243V11.6649L8.70001 11.6869Z" fill="white"/>
<path d="M8.86529 2.08184C8.86529 2.08184 8.97545 2.15894 9.03052 2.15894H9.15169C9.16967 2.16415 9.18877 2.16415 9.20676 2.15894H9.26184C9.26184 2.15894 9.33894 2.24706 9.39402 2.22503C9.44909 2.203 9.39402 2.22503 9.44909 2.22503C9.44909 2.22503 9.50417 2.22503 9.44909 2.22503C9.44909 2.22503 9.5262 2.22503 9.44909 2.29112C9.37199 2.35721 9.44909 2.29112 9.39402 2.29112C9.33894 2.29112 9.39402 2.29112 9.32793 2.35721C9.29149 2.36359 9.25422 2.36359 9.21778 2.35721C9.21778 2.35721 9.21778 2.4233 9.21778 2.43432C9.21778 2.43432 9.21778 2.44533 9.21778 2.43432H9.27285C9.27285 2.43432 9.27285 2.43432 9.33894 2.43432C9.38909 2.45034 9.443 2.45034 9.49315 2.43432V0H8.67804V2.00473C8.67804 2.00473 8.78819 2.02676 8.86529 2.08184Z" fill="white"/>
<path d="M27.9556 18.2736H25.2644C25.2681 18.5 25.2422 18.7258 25.1875 18.9455C25.1875 19.0446 25.1106 19.1768 25.0557 19.32H27.9776L27.9556 18.2736Z" fill="white"/>
<path d="M27.9556 17.1501V16.0486H23.7266L24.122 16.1918H24.6602L25.0667 16.291C25.1765 16.291 25.2973 16.5003 25.3523 16.5994C25.4072 16.6985 25.6818 16.6655 25.7587 16.7206C25.8356 16.7756 25.9674 16.9849 25.9674 16.9849V17.051L27.9556 17.1501Z" fill="white"/>
<path d="M11.8957 17.1502H16.4762L16.3004 16.9629C16.2508 16.8412 16.192 16.7234 16.1247 16.6105C16.0698 16.5333 16.1247 16.28 16.1247 16.28V16.0927H11.8957V13.3941H11.7419L11.2586 13.328C11.2067 13.1603 11.1249 13.0035 11.0169 12.8653L10.8412 12.7662V17.1722L11.8957 17.1502Z" fill="white"/>
<path d="M11.6993 5.50757H11.8315H11.8976V4.11967C11.7939 4.19174 11.7074 4.28576 11.6442 4.39505C11.6442 4.39505 11.6442 4.39505 11.5892 4.46114C11.5341 4.52723 11.479 4.58231 11.435 4.6484C11.3909 4.71449 11.435 4.76956 11.435 4.82464C11.4247 4.84904 11.4194 4.87525 11.4194 4.90174C11.4194 4.92823 11.4247 4.95444 11.435 4.97885C11.435 4.97885 11.435 4.97885 11.501 4.97885C11.5261 4.98724 11.5531 4.98724 11.5782 4.97885C11.5782 4.97885 11.5782 4.97885 11.5782 5.05595C11.5782 5.13306 11.5782 5.05595 11.6332 5.12204C11.6883 5.18813 11.6332 5.21016 11.6332 5.19915C11.6495 5.21732 11.6585 5.24085 11.6585 5.26524C11.6585 5.28962 11.6495 5.31315 11.6332 5.33133C11.6002 5.43046 11.6332 5.44148 11.6993 5.50757Z" fill="white"/>
<path d="M10.8964 2.69868C10.9084 2.69284 10.9215 2.6898 10.9348 2.6898C10.9482 2.6898 10.9613 2.69284 10.9733 2.69868C11.0511 2.72028 11.1252 2.75371 11.193 2.79781H11.2809C11.3358 2.79781 11.3797 2.79781 11.4346 2.79781C11.4896 2.79781 11.5225 2.70969 11.5665 2.67665C11.6104 2.6436 11.6433 2.57751 11.6983 2.57751C11.6983 2.57751 11.7532 2.57751 11.6983 2.57751C11.6983 2.57751 11.6983 2.65462 11.6983 2.68766C11.6983 2.68766 11.7642 2.74274 11.7642 2.77578C11.7642 2.80883 11.6653 2.8639 11.7093 2.90796C11.7093 2.97406 11.7532 2.95202 11.7093 2.90796C11.7647 2.88779 11.8113 2.84883 11.8411 2.79781C11.8713 2.7527 11.897 2.70474 11.918 2.65462V0H10.8524V2.70969L10.8964 2.69868Z" fill="white"/>
<path d="M11.1597 12.2377L11.2805 12.469L11.5551 12.1827C11.5551 12.1827 11.665 11.9403 11.7199 11.8522C11.7547 11.7762 11.8178 11.7169 11.8957 11.687V10.2771H11.7968C11.7524 10.2956 11.7115 10.3217 11.676 10.3542C11.676 10.3542 11.676 10.3542 11.6101 10.4202C11.5813 10.4282 11.5509 10.4282 11.5222 10.4202H11.3794H11.1597L11.0718 10.4863L10.8412 10.6075V12.1606C10.8875 12.2089 10.9437 12.2464 11.0059 12.2708C11.0324 12.2768 11.0599 12.277 11.0865 12.2713C11.113 12.2656 11.138 12.2541 11.1597 12.2377Z" fill="white"/>
<path d="M19.8815 14.0992H20.178L20.4746 14.2754L20.7932 14.4847H21.1447H21.3314L21.7928 14.6389C21.947 14.7091 22.0941 14.7939 22.2321 14.8923H27.955V13.8459H19.8265C19.8586 13.8349 19.8933 13.8349 19.9254 13.8459C20.178 14.0662 19.8815 14.0992 19.8815 14.0992Z" fill="white"/>
<path d="M16.2796 14.9696C16.2796 14.7603 15.7743 14.6722 15.7413 14.6171C15.6575 14.6036 15.5782 14.5695 15.5106 14.518L15.2141 14.2426C15.018 14.2402 14.8224 14.2624 14.6319 14.3087L14.533 14.4629H14.1815C14.1112 14.4349 14.0447 14.3978 13.9838 14.3527H13.7092L13.5664 14.2646H13.2808L13.0941 14.2096V13.9893V15.0908L16.2796 14.9696Z" fill="white"/>
<path d="M18.0373 14.0111C18.093 13.9974 18.1431 13.9666 18.1805 13.923H17.872C17.8894 13.9509 17.9138 13.9737 17.9428 13.9892C17.9718 14.0046 18.0044 14.0122 18.0373 14.0111Z" fill="white"/>
<path d="M15.3777 13.9781H15.5315L15.7072 14.1103H15.872C16.0324 14.0208 16.1974 13.9399 16.3663 13.868H15.2679L15.3777 13.9781Z" fill="white"/>
<path d="M13.3022 12.8438H13.5109C13.5988 12.8438 13.5109 12.9539 13.5109 12.9539V13.2183C13.5039 13.2805 13.5039 13.3433 13.5109 13.4056C13.5239 13.5116 13.5239 13.6189 13.5109 13.725C13.5588 13.7523 13.6 13.7899 13.6317 13.8351C13.6866 13.9122 13.7526 13.9343 13.8954 13.9893C13.9737 14.0123 14.0453 14.0538 14.1041 14.1105H14.4226C14.4995 14.1105 14.6313 13.9563 14.6313 13.9563H14.8949H14.0601V8.32763C14.0042 8.3479 13.9522 8.37771 13.9063 8.41575C13.9063 8.41575 13.8514 8.48184 13.8404 8.51488C13.8294 8.54793 13.7635 8.51488 13.7196 8.51488C13.6833 8.50776 13.646 8.50776 13.6098 8.51488C13.6098 8.51488 13.6098 8.59199 13.6098 8.63605C13.6195 8.67584 13.6195 8.71742 13.6098 8.75721C13.6098 8.75721 13.6098 8.85635 13.6647 8.88939C13.6618 8.91501 13.6618 8.94088 13.6647 8.9665C13.6416 9.044 13.6083 9.11808 13.5658 9.1868L13.467 9.26391C13.467 9.26391 13.3132 9.44015 13.2692 9.47319C13.2102 9.52039 13.1583 9.57607 13.1154 9.63842V12.6675H13.1814L13.3022 12.8438Z" fill="white"/>
<path d="M13.0391 6.60901C13.0391 6.60901 13.0391 6.60901 13.094 6.60901H13.1819C13.2478 6.60901 13.2808 6.49886 13.3357 6.4548C13.3906 6.41074 13.5114 6.33363 13.4455 6.24551C13.3796 6.15739 13.4455 6.24551 13.3796 6.14638C13.3137 6.04724 13.3796 6.08029 13.3796 6.05826C13.3796 6.03623 13.2808 5.99217 13.2588 5.93709C13.2368 5.88202 13.2588 5.93709 13.2588 5.93709C13.2588 5.93709 13.3247 5.871 13.3577 5.83796C13.3906 5.80491 13.3577 5.83796 13.4236 5.83796C13.4236 5.83796 13.4895 5.83796 13.4236 5.83796L13.4895 5.76085H13.5554C13.552 5.73158 13.552 5.70201 13.5554 5.67273C13.6103 5.60664 13.6762 5.49649 13.6213 5.41939C13.6047 5.37707 13.5784 5.33932 13.5444 5.30924C13.5444 5.30924 13.5444 5.30924 13.5444 5.25416C13.5444 5.19909 13.5444 5.25416 13.5444 5.17706C13.5444 5.09995 13.4675 5.17706 13.4675 5.17706C13.4675 5.17706 13.5334 5.09995 13.5554 5.08894C13.5467 5.07387 13.5421 5.05677 13.5421 5.03937C13.5421 5.02197 13.5467 5.00487 13.5554 4.9898C13.5554 4.9898 13.5554 4.9898 13.5554 4.92371C13.5554 4.85762 13.5554 4.92371 13.5554 4.85762C13.5554 4.85762 13.4785 4.78052 13.5554 4.72544C13.5818 4.67012 13.615 4.61832 13.6542 4.57123C13.6593 4.54578 13.6593 4.51958 13.6542 4.49413C13.661 4.47639 13.661 4.45678 13.6542 4.43905C13.6542 4.43905 13.7311 4.43905 13.7641 4.43905C13.7641 4.43905 13.797 4.43905 13.7641 4.43905V0H12.6656V2.81984C12.7062 2.77309 12.7329 2.71584 12.7425 2.65462C12.7425 2.65462 12.7425 2.55548 12.7425 2.51142V2.43432H12.8084C12.8084 2.43432 12.8084 2.43432 12.8084 2.36823C12.8084 2.36823 12.8084 2.30214 12.8743 2.31315C12.9402 2.32417 12.8743 2.31315 12.8743 2.36823C12.8743 2.4233 12.8743 2.36823 12.9293 2.36823C12.9293 2.36823 13.0281 2.36823 13.0391 2.43432C13.0501 2.50041 13.0391 2.51142 12.9732 2.53345C12.9073 2.55548 12.9732 2.61056 12.9073 2.6436C12.8414 2.67665 12.9073 2.6436 12.9073 2.70969H12.9842C12.9842 2.70969 12.9842 2.77578 12.9842 2.7868L12.9073 2.87492C12.9073 2.87492 12.9073 2.97405 12.8194 2.99608C12.7769 3.01215 12.7301 3.01215 12.6876 2.99608C12.6876 2.99608 12.6107 2.99608 12.5668 2.99608V6.54292L13.0391 6.60901Z" fill="white"/>
<path d="M27.9551 12.8104V11.7089H16.2347V6.15737C16.1948 6.17784 16.1608 6.20817 16.1358 6.24549C16.0367 6.33115 15.9206 6.39495 15.7953 6.43275C15.6637 6.44334 15.5315 6.44334 15.3999 6.43275L15.1692 6.49884V7.15974C15.2306 7.18523 15.2837 7.22715 15.323 7.2809C15.323 7.2809 15.323 7.36902 15.4218 7.38004C15.5207 7.39105 15.5756 7.29192 15.5756 7.29192L15.6635 7.23684V7.30293C15.6635 7.30293 15.6635 7.30293 15.5536 7.40207L15.3779 7.60034C15.3779 7.60034 15.2241 7.60034 15.2021 7.60034V12.7664L27.9551 12.8104Z" fill="white"/>
<path d="M15.3784 4.60428H15.4882C15.498 4.65151 15.498 4.70024 15.4882 4.74747C15.4734 4.81644 15.4734 4.88779 15.4882 4.95676H15.5541C15.5541 4.95676 15.642 5.03386 15.6969 5.05589C15.7221 5.0648 15.744 5.08115 15.7597 5.10279C15.7753 5.12442 15.7841 5.15032 15.7848 5.17706C15.7579 5.22886 15.7394 5.28464 15.7299 5.34228C15.7299 5.41939 15.8507 5.4304 15.8947 5.45243C15.9386 5.47446 16.1363 5.45243 16.1473 5.51852C16.1583 5.58461 16.1473 5.58461 16.1473 5.60664V0H15.1038V4.95676C15.1301 4.8734 15.1631 4.79236 15.2026 4.71443C15.2532 4.66618 15.313 4.6287 15.3784 4.60428Z" fill="white"/>
<path d="M15.8506 6.19041V6.11331C15.8506 6.11331 15.8506 6.11331 15.8506 6.0362C15.8506 5.9591 15.9277 6.0362 15.9938 6.0362L16.159 5.97011V5.61763C16.159 5.61763 16.159 5.72778 16.0488 5.77184C15.9387 5.8159 15.8506 5.83793 15.8065 5.89301C15.7624 5.94808 15.8065 5.98113 15.8065 6.00316C15.8065 6.02519 15.8065 6.00316 15.7404 6.09128C15.6743 6.1794 15.8506 6.19041 15.8506 6.19041Z" fill="white"/>
<path d="M18.399 9.57205V0H17.3555V10.6185H27.9555V9.57205H18.399Z" fill="white"/>
<path d="M27.9559 8.44852V7.39108H20.5743V0H19.5198V8.42649L27.9559 8.44852Z" fill="white"/>
<path d="M27.9557 6.26754V5.22112H22.749V0H21.6835V6.25653L27.9557 6.26754Z" fill="white"/>
<path d="M27.9561 4.09759V3.04014H24.9133V0H23.8478V4.09759H27.9561Z" fill="white"/>
<path d="M27.9558 1.91661V0.870187H27.088V0H26.0335V1.91661H27.9558Z" fill="white"/>
</svg>
