<svg width="20" height="17" viewBox="0 0 20 17" fill="none" xmlns="http://www.w3.org/2000/svg">
<path d="M9.50003 0C11.1569 0 12.5 1.34315 12.5 3C12.5 4.04398 11.9663 4.96265 11.1573 5.5H7.8428C7.03381 4.96265 6.50003 4.04398 6.50003 3C6.50003 1.34315 7.84318 1.28853e-07 9.50003 0Z" fill="#272727"/>
<path d="M19.9995 6.51132C19.9972 6.26 19.7892 6.02064 19.5372 6.03261C19.2898 6.04458 19.0702 6.24324 19.0748 6.51132C19.0771 6.631 19.0748 6.75068 19.0679 6.87276C19.0656 6.92781 19.0609 6.98286 19.0563 7.03791C19.054 7.05706 19.0517 7.07621 19.0494 7.09775C19.0656 7.0068 19.0378 7.20786 19.0494 7.10254C19.0494 7.10254 19.0494 7.10015 19.0494 7.09775C19.0193 7.28206 18.98 7.46158 18.9199 7.63631C18.9176 7.64588 18.913 7.65546 18.9107 7.66503C18.9107 7.66503 18.9107 7.66503 18.9107 7.66742C18.9061 7.67939 18.9014 7.69375 18.8968 7.70572C18.8922 7.72008 18.8852 7.72726 18.8829 7.72966C18.8783 7.74163 18.8737 7.75359 18.8668 7.76317C18.8321 7.83258 18.7951 7.8996 18.7535 7.96183C18.7512 7.96662 18.7465 7.97141 18.7442 7.9762C18.7419 7.98338 18.735 7.99534 18.7257 8.00731C18.7188 8.01449 18.7142 8.02167 18.7072 8.03125C18.7049 8.03364 18.7026 8.03843 18.7026 8.04082C18.7049 8.03843 18.7049 8.03364 18.7072 8.03125C18.7049 8.03364 18.7049 8.03604 18.7026 8.03843C18.661 8.08869 18.6148 8.13657 18.5685 8.18204C18.55 8.1988 18.5315 8.21555 18.5154 8.22992C18.5177 8.22752 18.52 8.22752 18.5223 8.22513C18.6078 8.16529 18.4298 8.30651 18.5107 8.2347C18.513 8.23231 18.5154 8.23231 18.5154 8.22992C18.4691 8.26343 18.4252 8.29454 18.3766 8.32087C18.3373 8.34481 18.2957 8.36635 18.2541 8.38789C18.2611 8.3855 18.2657 8.38311 18.2726 8.38071C18.3096 8.36635 18.2171 8.40943 18.2125 8.40943C18.2148 8.40704 18.2241 8.40225 18.2449 8.39268C18.2472 8.39029 18.2518 8.39029 18.2541 8.38789C18.2356 8.39507 18.2171 8.40225 18.1986 8.40943C18.1154 8.44055 18.0299 8.46449 17.942 8.48124C17.9374 8.48124 17.9328 8.48364 17.9258 8.48364V8.48603C17.9328 8.48603 17.9374 8.48603 17.9443 8.48364C17.9374 8.48364 17.9328 8.48364 17.9258 8.48603C17.9097 8.48603 17.8981 8.48842 17.8865 8.48842C17.9004 8.48603 17.9143 8.48603 17.9258 8.48364C17.7825 6.93738 16.9664 5.52038 15.8313 4.5055C15.11 3.86163 14.2847 3.36616 13.4039 3.00233C13.4016 3.1268 13.3924 3.25127 13.3785 3.37573C13.3646 3.4978 13.3461 3.61748 13.323 3.73716C13.3184 3.76349 13.3138 3.78743 13.3068 3.81376C13.2005 4.30923 12.9947 4.79513 12.7104 5.21161C12.6988 5.22597 12.6896 5.24273 12.6803 5.25709C12.93 5.26906 13.1103 5.48208 13.1219 5.7358C13.1334 5.99431 12.9023 6.21452 12.6595 6.21452H11.5938C11.2655 6.22649 10.9326 6.21452 10.6043 6.21452H7.53653C7.50416 6.21452 7.4718 6.21691 7.43943 6.21452H6.37369C6.11476 6.21452 5.92288 5.99431 5.91132 5.7358C5.89976 5.48448 6.11939 5.26906 6.35288 5.25709C6.17949 5.00337 6.03385 4.72811 5.91826 4.43848C5.77955 4.09381 5.68939 3.72759 5.65009 3.3518C5.63159 3.18425 5.62466 3.0167 5.62697 2.84675C5.62928 2.69596 5.63853 2.54277 5.65933 2.39197C5.65009 2.38479 5.64315 2.37761 5.6339 2.36803C5.38423 2.13346 5.1438 1.87496 4.87331 1.66671C4.59127 1.4489 4.18208 1.44411 3.8931 1.65475C3.64805 1.83427 3.51628 2.10713 3.51396 2.41591C3.51165 2.77734 3.51396 3.13877 3.51396 3.4978V4.41455C2.74413 5.07996 2.11531 5.91054 1.71768 6.86318C1.3894 6.86079 1.06575 6.86797 0.758277 7.02116C0.258924 7.27248 0 7.81343 0 8.36874V9.47458C0 9.64452 0.00231175 9.81207 0.0393009 9.98202C0.115591 10.3171 0.314407 10.6043 0.577955 10.8054C0.917792 11.0687 1.31542 11.0807 1.71768 11.0783C2.20548 12.2487 3.03773 13.211 4.03875 13.9458C3.91853 14.2713 3.79601 14.5944 3.67579 14.92C3.60875 15.0995 3.52321 15.279 3.50472 15.4705C3.4816 15.7194 3.58332 15.9779 3.76595 16.1383C3.86074 16.2221 3.96708 16.27 4.08036 16.3154C4.52192 16.4926 4.96348 16.6673 5.40503 16.8444C5.57611 16.9138 5.74718 17 5.93444 17C6.19799 17 6.44998 16.854 6.591 16.6266C6.63954 16.5476 6.6696 16.4567 6.70196 16.3681C6.8268 16.0306 6.95395 15.6955 7.07879 15.358C8.43814 15.7123 9.87147 15.7577 11.2562 15.5423C11.5591 15.4944 11.8596 15.4346 12.1579 15.358C12.2665 15.65 12.3752 15.9444 12.4861 16.2364C12.5832 16.4973 12.6711 16.7559 12.9254 16.9019C13.1843 17.0503 13.4409 17.0024 13.6952 16.8995C14.1483 16.7176 14.6038 16.5356 15.0569 16.3561C15.1054 16.337 15.154 16.3178 15.2048 16.2963C15.4291 16.2029 15.5978 16.0497 15.688 15.8104C15.7828 15.5519 15.7111 15.3221 15.6233 15.0851C15.4823 14.7069 15.3412 14.3264 15.2002 13.9482C16.6474 12.8854 17.7548 11.3105 17.9235 9.45064C18.09 9.43389 18.2564 9.3932 18.4067 9.34293C18.9939 9.14426 19.4748 8.70624 19.7221 8.11742C19.9348 7.60998 20.0065 7.06424 19.9995 6.51132ZM4.1266 8.29933C3.77751 8.29933 3.49547 8.00731 3.49547 7.64588C3.49547 7.28445 3.77751 6.99243 4.1266 6.99243C4.47568 6.99243 4.75772 7.28445 4.75772 7.64588C4.75772 8.00492 4.47337 8.29933 4.1266 8.29933Z" fill="#272727"/>
<path d="M9.49215 1.50058C8.61435 1.47725 7.8952 2.15879 7.8952 3.00029H7.58651C7.5089 3.00029 7.47096 3.09027 7.52615 3.14193L8.0073 3.60851C8.04179 3.64183 8.09525 3.64183 8.12974 3.60851L8.6109 3.14193C8.66436 3.09027 8.62642 3.00029 8.54881 3.00029H8.24012C8.24012 2.35042 8.78853 1.82552 9.46455 1.83385C10.1061 1.84218 10.6459 2.36375 10.6545 2.98363C10.6631 3.63517 10.1199 4.16673 9.44731 4.16673C9.16965 4.16673 8.9127 4.07508 8.7092 3.92011C8.64021 3.86846 8.54364 3.87346 8.48155 3.93344C8.40912 4.00343 8.4143 4.12174 8.49535 4.18173C8.75748 4.38169 9.08688 4.5 9.44731 4.5C10.3182 4.5 11.0236 3.80513 10.9994 2.95697C10.977 2.17545 10.301 1.52224 9.49215 1.50058ZM9.40419 2.33375C9.33349 2.33375 9.27485 2.39041 9.27485 2.45873V3.07194C9.27485 3.13027 9.30762 3.18526 9.35936 3.21525L9.89742 3.52352C9.9595 3.55852 10.0388 3.53852 10.075 3.4802C10.1113 3.42021 10.0906 3.34356 10.0302 3.30856L9.53354 3.02362V2.45706C9.53354 2.39041 9.4749 2.33375 9.40419 2.33375Z" fill="white"/>
</svg>
