<svg width="21" height="16" viewBox="0 0 21 16" fill="none" xmlns="http://www.w3.org/2000/svg">
<path d="M8 10C5.33 10 0 11.34 0 14V15C0 15.55 0.45 16 1 16H15C15.55 16 16 15.55 16 15V14C16 11.34 10.67 10 8 10Z" fill="#272727"/>
<circle cx="8" cy="4.00003" r="4" fill="#272727"/>
<path d="M21 7C21 4.792 19.208 3 17 3C14.792 3 13 4.792 13 7C13 9.208 14.792 11 17 11C19.208 11 21 9.208 21 7ZM18.2 4.8L19.46 6.06C19.54 6.14 19.54 6.264 19.46 6.344L18.2 7.6V6.6H16.6V5.8H18.2V4.8ZM15.8 9.2L14.54 7.94C14.46 7.86 14.46 7.736 14.54 7.656L15.8 6.4V7.4H17.4V8.2H15.8V9.2Z" fill="#272727"/>
</svg>
