<svg width="16" height="16" viewBox="0 0 16 16" fill="none" xmlns="http://www.w3.org/2000/svg">
<path d="M4.94966 13.5288L1.61335 10.1925C1.24158 9.8207 0.650581 9.8207 0.27882 10.1925C-0.0929401 10.5642 -0.0929401 11.1552 0.27882 11.527L4.27286 15.521C4.64462 15.8928 5.24516 15.8928 5.61692 15.521L15.7212 5.4263C16.0929 5.05454 16.0929 4.46354 15.7212 4.09178C15.3494 3.72002 14.7584 3.72002 14.3867 4.09178L4.94966 13.5288Z" fill="#272727"/>
<path d="M5.42578 0C7.79467 0 9.71556 1.92023 9.71582 4.28906C9.71582 6.65811 7.79483 8.5791 5.42578 8.5791C3.05695 8.57884 1.13672 6.65795 1.13672 4.28906C1.13698 1.92039 3.05711 0.000260498 5.42578 0ZM5.42676 1.22559C5.08972 1.22559 4.81348 1.50183 4.81348 1.83887H4.20117C3.8642 1.83887 3.588 2.11423 3.58789 2.45117V4.29004C3.58805 4.62694 3.86423 4.90234 4.20117 4.90234H6.03906V5.51562H4.20117C3.8642 5.51562 3.588 5.79098 3.58789 6.12793C3.58789 6.46497 3.86414 6.74121 4.20117 6.74121H4.81348C4.81364 7.07811 5.08982 7.35352 5.42676 7.35352C5.76351 7.35329 6.0389 7.07798 6.03906 6.74121H6.65234C6.98919 6.74099 7.26465 6.46483 7.26465 6.12793V4.29004C7.26465 3.95314 6.98919 3.67698 6.65234 3.67676H4.81348V3.06445H6.65234C6.98919 3.06423 7.26465 2.78807 7.26465 2.45117C7.26454 2.11436 6.98913 1.83909 6.65234 1.83887H6.03906C6.03906 1.50197 5.76361 1.22581 5.42676 1.22559Z" fill="#272727"/>
</svg>
